<?xml version="1.0" standalone="no"?>
<!DOCTYPE svg PUBLIC "-//W3C//DTD SVG 20010904//EN"
 "http://www.w3.org/TR/2001/REC-SVG-20010904/DTD/svg10.dtd">
<svg version="1.0" xmlns="http://www.w3.org/2000/svg"
 width="1280.000000pt" height="732.000000pt" viewBox="0 0 1280.000000 732.000000"
 preserveAspectRatio="xMidYMid meet">
<metadata>
Created by potrace 1.15, written by Peter Selinger 2001-2017
</metadata>
<g transform="translate(0.000000,732.000000) scale(0.100000,-0.100000)"
fill="#FFFFFFF" stroke="none">
<path d="M11765 7313 c-16 -1 -77 -8 -135 -14 -58 -7 -118 -11 -135 -11 -51 2
-212 -56 -385 -138 -91 -43 -770 -348 -1510 -678 -740 -330 -1473 -657 -1630
-727 -157 -70 -596 -266 -977 -436 -381 -170 -1933 -860 -3449 -1535 -1516
-674 -2763 -1232 -2771 -1240 -8 -8 -20 -14 -26 -14 -21 0 -154 -67 -214 -108
-215 -146 -431 -461 -496 -722 -57 -232 -42 -530 40 -770 138 -408 463 -745
833 -863 123 -40 213 -52 380 -51 135 1 168 4 254 28 123 33 241 91 337 164
85 65 671 357 2249 1122 4448 2158 7125 3475 8140 4005 291 152 319 173 388
292 46 79 94 210 116 315 23 112 31 307 17 427 -47 398 -293 741 -632 878
-137 55 -296 86 -394 76z"/>
</g>
</svg>
