<?xml version="1.0" encoding="utf-8"?><svg version="1.1" id="Layer_1" xmlns="http://www.w3.org/2000/svg" xmlns:xlink="http://www.w3.org/1999/xlink" x="0px" y="0px" viewBox="0 0 122.88 89.45" style="enable-background:new 0 0 122.88 89.45" xml:space="preserve"><style type="text/css">.st0{fill-rule:evenodd;clip-rule:evenodd;}</style><g><path class="st0" d="M100.29,68.53c1.59,0,2.87,1.29,2.87,2.87c0,1.59-1.29,2.87-2.87,2.87c-1.59,0-2.87-1.29-2.87-2.87 C97.42,69.81,98.7,68.53,100.29,68.53L100.29,68.53z M11.79,22.35l3.13,7.09L0,30.23l21.45,6.82l-2.44-6.7l15.08-0.26L11.79,22.35 L11.79,22.35L11.79,22.35z M34.83,0l-0.91,8.08l-13.93-7.7l15.54,18.26l1.57-7.43l13.73,8.11L34.83,0L34.83,0L34.83,0z M15.68,47.12l6.82,4.8L8.71,60.66l24.08-5l-5.91-5.07l14.19-8.04L15.68,47.12L15.68,47.12L15.68,47.12z M113.81,89.2l-10.65-0.37 v0.01h-0.23v-0.01c-7.62,0-12.82,0-19.5-5.4c-2.14-1.73-4.1-3.83-5.89-6.28c-0.37-0.5-0.72-1.01-1.08-1.54 c0.02,1.67,0.07,3.35,0.11,5.02c0.07,2.83,0.14,6.47,0.14,8.81h-4.6c0-2.95-0.06-6.23-0.12-8.7c-0.14-5.38-0.27-10.77,0.13-16.1 c0.16-2.15-0.09-3.7-0.73-4.68c-0.53-0.82-1.45-1.3-2.71-1.47l0.61-4.54c2.63,0.36,4.63,1.51,5.94,3.52 c1.2,1.85,1.71,4.33,1.47,7.52c-0.05,0.65-0.09,1.3-0.12,1.94l0.21-0.1c1.33,2.83,2.81,5.38,4.45,7.61 c1.56,2.13,3.25,3.95,5.07,5.42c5.44,4.4,9.98,4.4,16.63,4.4v-0.01h0.23v0.01c0.02,0,0.05,0,0.07,0l10.72,0.37L113.81,89.2 L113.81,89.2L113.81,89.2z M122.67,8.64c0.64,4.46-0.18,8.07-2.5,10.83c-2.25,2.67-5.82,4.36-10.76,5.07 c-4.16,0.59-8.49,1.02-12.87,1.45c-4.56,0.45-9.17,0.9-13.88,1.59c-0.12,0.02-0.25,0.03-0.37,0.02 c-11.37,0.52-21.79,1.02-28.18,5.16c-6.1,3.95-8.77,11.68-5.42,26.93l2.45,7.35c0.24,0.72,0.1,1.48-0.32,2.06l0,0 c-1.88,2.62-3.23,5.48-3.93,8.66c-0.69,3.19-0.72,7.77,0.04,11.69h-4.51c-0.89-4.56-0.85-8.87-0.02-12.66 c0.74-3.41,2.12-6.52,4.02-9.39l-2.1-6.31c-0.04-0.1-0.07-0.2-0.09-0.3c-3.89-17.63-0.38-26.84,7.37-31.87 c7.42-4.81,18.44-5.35,30.45-5.9c4.62-0.67,9.35-1.14,14.02-1.6c4.27-0.42,8.49-0.83,12.68-1.43c3.78-0.54,6.41-1.71,7.91-3.49 c1.43-1.69,1.91-4.11,1.46-7.22L122.67,8.64L122.67,8.64z"/></g></svg>