<svg width="240" height="70" viewBox="0 0 300 70" fill="none" xmlns="http://www.w3.org/2000/svg">
<path fill-rule="evenodd" clip-rule="evenodd" d="M84.9819 36.086C84.8109 35.228 84.8049 34.347 84.6909 33.481C84.5699 32.571 84.3919 31.667 84.3529 30.748C84.2889 29.244 84.4689 27.743 84.4549 26.239C84.4539 26.12 84.4939 25.846 84.4089 25.74C84.2939 25.596 84.2139 25.544 84.1659 25.512C84.0349 25.426 84.0739 25.358 84.1459 25.235C84.1649 25.202 84.1899 25.159 84.2199 25.104C84.5129 24.571 84.4179 24.219 84.0939 23.627C83.9169 23.244 83.5879 22.822 83.3289 22.646C83.0459 22.453 82.8789 22.444 82.5459 22.425C82.3539 22.414 82.1139 22.4 81.7749 22.346C81.0519 22.21 80.5239 21.954 80.1749 21.785C80.0909 21.744 80.0169 21.708 79.9419 21.675C79.7919 21.585 79.3299 21.531 78.7069 21.531C76.7049 21.531 74.7599 22.119 72.8429 22.632C71.9609 22.868 71.0649 23.142 70.1419 23.111C69.6119 23.093 69.0789 22.814 68.5469 22.901C67.9749 22.995 67.7799 23.459 67.4909 23.903L67.4739 23.929C66.9909 24.669 66.8409 25.828 66.6329 26.677C66.4499 27.426 66.4879 28.204 66.3689 28.962C66.2509 29.717 65.9979 30.441 65.7729 31.168C65.5339 31.939 65.2989 32.724 64.8779 33.42C64.6259 33.837 64.3979 34.202 64.4559 34.703C64.5119 35.185 64.7579 35.614 64.9399 36.056C65.1679 36.611 65.3639 37.179 65.5529 37.748C65.6539 38.051 65.6329 38.395 65.7649 38.687C65.8849 38.952 66.1929 39.15 66.2029 39.461C66.2129 39.802 66.2309 40.372 66.3899 40.471C66.6159 40.61 66.8129 40.678 66.9919 40.678C67.3449 40.678 67.5939 40.403 67.8579 40.113C68.4369 39.475 68.9979 39.652 69.7939 39.614C71.0899 39.553 72.3059 39.031 73.6059 38.963C74.4809 38.917 75.3569 38.98 76.2319 39.001C77.0809 39.021 77.9219 38.914 78.7699 38.914C79.3229 38.914 79.4369 38.989 79.4779 39.07L79.5119 39.138C79.6579 39.43 79.8569 39.829 80.1569 39.946C80.7909 40.192 81.3859 40.453 81.9959 40.759C82.5999 41.062 83.2489 41.358 83.9379 41.358C84.3689 41.358 84.6449 41.082 84.7949 40.699C85.3209 39.351 85.2599 37.48 84.9819 36.086ZM77.6169 23.606C77.6829 23.48 77.7669 23.438 77.8619 23.437C78.0519 23.435 78.2439 23.535 78.4219 23.589L78.4819 23.607L78.4769 23.738C78.4549 24.382 78.4219 24.522 77.6319 24.595L77.5849 24.599L77.5579 24.561C77.4629 24.424 77.4799 23.869 77.6169 23.606ZM76.3209 26.537L76.2899 26.405C76.5879 26.487 76.7379 26.465 76.7839 26.801C76.8589 27.351 76.8659 27.91 76.8849 28.465C76.8849 28.474 76.8969 28.813 76.8969 28.813L76.8609 28.838C76.4779 29.102 76.1159 29.551 75.7319 30.026C75.1279 30.774 74.5029 31.547 73.7299 31.653L73.5469 31.678L73.6529 31.527C73.8039 31.312 73.9939 30.973 74.1949 30.614C74.5409 29.996 74.9329 29.296 75.2839 28.946C76.6159 27.791 76.5879 27.672 76.3209 26.537ZM72.6299 29.14C72.5489 29.14 72.4709 29.112 72.3989 29.058C72.1619 28.88 72.3069 28.686 72.4669 28.527C72.6269 28.369 72.7729 28.206 72.8749 28.004C72.9749 27.805 73.0329 27.582 73.1909 27.417C73.3589 27.241 73.6039 27.154 73.8179 27.049C74.2309 26.845 74.7949 26.354 75.3189 26.368C75.4399 26.371 75.5599 26.402 75.6739 26.469C75.6359 26.507 75.5909 26.532 75.5429 26.561C75.2459 26.738 74.9639 26.896 74.7439 27.17C74.2199 27.824 73.6269 29.138 72.6299 29.14ZM69.0159 26.094C69.0169 26.091 69.1089 25.796 69.1989 25.473L69.2089 25.438L69.2419 25.422C69.6469 25.223 70.0539 25.116 70.4479 25.013C71.0439 24.856 71.6599 24.694 72.3159 24.205C72.7289 23.958 74.4639 23.618 75.3089 23.618C75.6139 23.618 75.7629 24.384 75.7889 24.537L75.8019 24.61L75.7299 24.629C75.4839 24.693 75.1039 24.714 74.7359 24.734C73.5289 24.801 72.3679 25.151 71.2349 25.556C70.6339 25.771 69.8669 26.235 69.2159 26.235C69.1299 26.235 69.0709 26.214 69.0329 26.17L69.0029 26.136L69.0159 26.094ZM70.4249 37.225C70.4839 37.334 70.7169 37.418 70.9219 37.418C71.1489 37.418 71.4349 37.361 71.7969 37.379C72.0549 37.392 72.6489 37.474 72.6489 37.474C72.5039 37.454 72.2519 37.561 72.1039 37.586C71.0959 37.751 70.0059 37.95 68.9839 37.95C67.9419 37.95 67.5909 36.77 67.4589 35.93C67.2739 34.754 67.0299 33.308 67.2529 32.14C67.4359 31.182 67.8529 30.273 67.8979 29.289C67.9149 28.927 67.9569 28.441 68.1609 28.121L68.1829 28.086L68.2249 28.084C68.5479 28.068 68.8829 28.066 69.1969 27.982C69.4859 27.904 69.7679 27.78 70.0719 27.78C70.2779 27.78 70.6939 27.873 70.7509 28.111C70.7809 28.237 70.6759 28.348 70.4839 28.55C70.1979 28.852 69.9539 29.215 69.6219 29.468C69.0539 29.901 68.2729 30.349 68.1979 31.142C68.1849 31.282 68.6469 31.445 68.7519 31.493C69.3889 31.786 69.8809 31.636 70.4889 31.351C70.6949 31.255 70.9079 31.155 71.1159 31.091L71.1389 31.085H71.1509C71.1909 31.085 71.2249 31.109 71.2389 31.145C71.3009 31.313 70.5619 32.203 70.5529 32.21C69.9519 32.729 69.0959 32.872 68.5629 33.48C68.4309 33.631 68.3409 33.765 68.3359 33.926C68.3209 34.436 68.8139 34.527 69.1759 34.729C69.5549 34.94 69.9439 35.082 70.3739 34.927C71.1409 34.65 71.6639 34.044 72.4919 33.832C73.2439 33.64 74.0279 33.609 74.7799 33.413C75.3539 33.264 76.0069 33.096 76.4199 32.639C76.8179 32.198 76.8179 32.198 77.3299 31.374L77.3539 31.336H77.3989C77.4959 31.336 77.5859 31.355 77.6939 31.378C77.7509 31.391 77.7929 31.43 77.8099 31.489C77.8959 31.782 77.2969 32.725 77.2159 32.806C76.1319 33.898 74.3809 34.467 72.9659 34.994C72.2449 35.262 71.5159 35.523 70.9879 36.113C70.8169 36.306 70.2719 36.94 70.4249 37.225ZM81.2489 37.883C80.8109 37.841 80.7179 37.297 80.4899 37.01C80.4839 37.002 80.4769 36.994 80.4709 36.986C80.2309 36.702 79.8869 36.589 79.5189 36.589C78.8759 36.589 78.2459 36.8 77.6069 36.861C76.8979 36.929 76.1829 36.913 75.4739 36.984C74.9399 37.037 74.4009 37.096 73.8719 37.186C73.5989 37.233 73.2919 37.29 73.0339 37.325C73.3149 36.834 74.1459 36.5 74.6539 36.315C75.2659 36.093 75.8989 35.863 76.2729 35.614L76.3019 35.601L76.3239 35.6C76.3349 35.599 76.3459 35.599 76.3569 35.599C76.3769 35.599 76.4369 35.599 76.4799 35.651C76.5199 35.7 76.4379 35.806 76.3849 35.883C76.5689 35.847 76.8199 35.731 76.9009 35.698C77.1169 35.611 77.3259 35.504 77.5019 35.351C77.8569 35.042 78.0039 34.573 78.2569 34.19C78.4279 33.931 78.6629 33.531 78.9879 33.448C79.0009 33.445 79.0139 33.443 79.0269 33.443C79.3509 33.443 79.4679 33.872 79.5569 34.113C79.7379 34.601 79.9719 35.068 80.1589 35.555C80.2669 35.836 80.3509 36.136 80.5479 36.37C80.8619 36.743 81.4629 36.656 81.8889 36.613C81.9839 36.603 82.3179 36.525 82.3179 36.525C82.3179 36.525 82.3179 37.984 81.2489 37.883ZM82.4309 28.38C82.4239 28.568 82.4179 28.75 82.4159 28.92C82.4079 29.712 82.3739 30.516 82.3409 31.293C82.3069 32.104 82.2709 32.942 82.2649 33.767V33.818L82.2179 33.84C82.1969 33.85 82.1769 33.86 82.1569 33.87C81.6659 34.118 81.3029 33.399 81.1189 33.045C80.9049 32.633 80.7779 32.185 80.6549 31.739C80.5649 31.411 80.4789 31.101 80.3639 30.883L80.3439 30.845L80.3639 30.807C80.5499 30.451 80.7849 30.124 80.9709 29.768C81.1679 29.39 81.3439 29 81.5499 28.626C81.6879 28.374 81.9919 27.892 81.8969 27.584C81.5559 27.019 81.1319 26.72 80.6689 26.72C80.2959 26.72 79.9559 26.912 79.7019 27.177C79.2349 27.665 79.6609 28.492 79.2959 29.053L79.2359 29.146L79.1649 29.061C79.1289 29.019 78.5679 28.414 78.4469 28.341L78.4189 28.324L78.4109 28.293C78.4069 28.277 78.0039 26.626 78.2169 26.443C78.4639 26.231 78.8629 26.201 79.1729 26.198C79.5259 26.194 79.9359 26.35 80.2649 26.163C80.4989 26.03 80.6779 25.777 80.7429 25.517C80.8649 25.032 80.8029 24.777 80.4879 24.468L80.5669 24.333C82.2129 24.81 82.4789 27.001 82.4309 28.38Z" fill="white"/>
<path fill-rule="evenodd" clip-rule="evenodd" d="M105.642 29.541C106.201 29.486 106.779 29.536 107.273 29.753L107.381 29.801L107.297 29.885C106.253 30.928 106.001 32.479 105.03 33.571C104.221 34.482 103.078 35.185 102.023 35.779C101.465 36.093 100.841 36.221 100.254 36.464C99.7429 36.675 99.3649 37.133 98.8389 37.301C98.4619 37.421 98.0139 37.392 97.6229 37.409C96.5599 37.455 95.4789 37.536 94.4289 37.709C93.9639 37.786 93.6559 38.456 93.6389 38.872C93.6239 39.249 93.9729 39.51 94.2529 39.698C94.5989 39.93 94.8709 40.011 95.2709 39.862C95.7069 39.7 96.1699 39.665 96.6199 39.56C97.2519 39.413 97.8729 39.218 98.5119 39.099C99.1599 38.978 99.8119 38.988 100.467 38.938C102.004 38.821 103.398 37.989 104.968 38.327C105.421 38.424 105.86 38.575 106.314 38.67C107.339 38.884 108.411 38.746 109.44 38.631C110.552 38.506 111.634 38.49 112.751 38.488C113.174 38.487 114.046 38.569 114.354 38.193C114.751 37.623 114.909 37.179 114.831 36.841C114.665 36.119 113.694 35.875 113.152 35.514C112.791 35.274 112.258 35.372 111.854 35.417C110.625 35.554 109.445 35.986 108.209 36.068C107.572 36.111 106.787 36.112 106.194 35.842C106.194 35.842 106.148 35.821 106.147 35.82C105.926 35.719 106.721 34.782 106.8 34.688C107.444 33.926 108.057 32.938 108.251 31.947C108.398 31.199 108.653 31.017 109.211 30.618C109.334 30.53 109.478 30.46 109.583 30.349C109.695 30.231 109.718 30.079 109.814 29.951L109.835 29.923L109.869 29.919C110.393 29.856 110.905 29.736 111.415 29.604C111.894 29.48 112.347 29.362 112.91 29.317C113.001 29.31 113.078 29.259 113.139 29.167C113.278 28.956 113.297 28.578 113.227 28.372C113.06 27.877 112.561 27.502 112.111 27.285C111.717 27.095 111.298 27.096 110.875 27.162C110.444 27.229 110.001 27.288 109.575 27.378C109.293 27.437 109.03 27.576 108.744 27.613C107.906 27.723 107.072 27.533 106.255 27.369L106.203 27.359L106.192 27.307C106.093 26.839 105.86 26.413 105.614 26.007C105.406 25.664 105.082 25.264 105.101 24.841C105.148 23.815 104.203 22.849 103.156 23.076C103.016 23.106 102.357 23.353 102.374 23.559C102.425 24.139 102.279 24.74 102.433 25.311C102.602 25.939 103.205 26.268 103.453 26.849C103.54 27.053 103.709 27.258 103.887 27.393C104.004 27.501 103.919 27.739 103.89 27.809L103.88 27.833L103.858 27.847C103.625 27.996 103.339 27.97 103.078 28.019C102.807 28.07 102.558 28.196 102.294 28.275C101.417 28.538 100.397 28.833 99.4749 28.833C99.2729 28.833 99.1449 28.796 99.0739 28.718C99.0389 28.68 99.0199 28.633 99.0159 28.579C99.0029 28.411 97.7239 28.567 97.5879 28.611C96.9499 28.817 96.3559 29.623 96.5999 30.319C96.7719 30.809 97.7149 30.785 98.1239 30.785C98.8399 30.785 99.5619 30.682 100.257 30.514C100.747 30.395 101.2 30.156 101.711 30.131C101.729 30.163 101.718 30.187 101.709 30.223C101.643 30.473 101.586 30.575 101.354 30.721C100.908 31.003 100.528 31.373 100.153 31.743C99.7869 32.104 99.3629 32.463 99.1389 32.936C98.9209 33.396 98.7749 34.655 99.0059 35.183C99.2549 35.75 100.265 35.226 100.551 34.962C100.988 34.559 101.33 34.069 101.657 33.576C101.942 33.147 102.382 32.693 102.567 32.215C102.745 31.755 102.711 31.249 102.899 30.779C102.978 30.581 103.06 30.377 103.121 30.157L103.136 30.104L103.19 30.098C104.031 30.01 104.803 29.624 105.642 29.541Z" fill="white"/>
<path d="M140.609 38.684C139.681 38.355 138.633 38.897 137.682 38.875C137.187 38.864 136.694 38.819 136.199 38.819C136.132 38.819 136.067 38.82 136.002 38.822L135.933 38.824C135.97 38.701 136.001 38.498 136.025 38.304C136.478 38.236 136.952 38.222 137.453 38.213C138.33 38.197 139.553 38.234 139.981 37.878C140.106 37.755 140.163 37.536 140.184 37.394C140.189 37.359 140.194 37.326 140.2 37.295C140.295 36.804 140.127 36.492 139.688 36.34C139.349 36.222 138.914 36.205 138.565 36.192C138.466 36.188 138.374 36.184 138.305 36.179L138.106 36.198C137.329 36.27 136.596 36.337 135.862 36.425L135.802 36.432L135.778 36.377C135.751 36.313 135.67 36.213 135.642 36.18L135.566 36.091L135.676 36.051C136.455 35.768 137.178 35.744 137.994 35.802C138.341 35.827 138.683 35.782 139.027 35.8C139.139 35.806 139.435 35.837 139.444 35.663C139.47 35.196 139.703 34.688 139.542 34.228C139.425 33.894 139.054 33.578 139.135 33.194C139.179 32.987 139.495 32.89 139.643 32.777C139.731 32.71 139.789 32.672 139.791 32.557C139.794 32.381 139.702 32.198 139.689 32.02C139.683 31.933 139.678 31.886 139.657 31.85C139.363 31.602 138.884 31.513 138.51 31.512C138.085 31.511 137.695 31.657 137.313 31.831C136.856 32.039 136.411 32.208 135.905 32.231C135.422 32.252 134.926 32.187 134.456 32.337C133.051 32.785 131.641 32.554 130.212 32.741C129.911 32.781 129.634 32.901 129.347 32.992C129.233 33.028 128.998 33.045 128.917 33.134C128.822 33.56 129.193 34.114 129.828 34.488C129.84 34.497 129.86 34.509 129.907 34.509C129.96 34.509 130.026 34.495 130.103 34.478C130.212 34.454 130.336 34.428 130.478 34.428C130.503 34.428 130.529 34.429 130.555 34.431L130.63 34.436V34.749L130.592 34.773C130.438 34.868 130.256 34.961 130.064 35.058C129.406 35.392 128.662 35.771 128.661 36.44C128.678 36.552 128.795 36.608 129.018 36.705C129.21 36.789 129.417 36.958 129.624 36.989C129.836 37.021 130.052 36.913 130.246 36.844C131.035 36.561 131.909 36.529 132.699 36.311C132.89 36.258 133.083 36.277 133.275 36.312L133.341 36.324V36.391C133.341 36.409 133.348 36.436 133.357 36.468C133.385 36.572 133.428 36.729 133.339 36.966L133.33 36.99L133.308 37.004C133.053 37.173 132.769 37.311 132.479 37.408C131.63 37.693 130.557 37.866 129.665 37.755C129.337 37.714 129.022 37.488 128.709 37.67C128.481 37.803 128.258 37.949 128.037 38.093C127.776 38.263 127.507 38.448 127.788 38.733C127.965 38.911 128.187 39.045 128.384 39.199C128.641 39.4 128.821 39.473 129.149 39.44C129.475 39.407 129.788 39.298 130.109 39.24C130.932 39.089 131.784 38.934 132.635 38.895L132.744 38.89L132.717 38.995C132.552 39.647 131.56 39.856 131.004 39.958C130.139 40.117 129.262 40.093 128.392 39.994C128.277 39.981 128.147 39.959 128.009 39.936C127.764 39.895 127.46 39.804 127.219 39.9C126.993 39.99 126.831 40.196 126.644 40.344C126.483 40.472 126.26 40.625 126.261 40.856C126.262 41.077 126.505 41.276 126.651 41.411C126.998 41.732 127.258 41.93 127.712 41.959C127.749 41.961 127.788 41.963 127.828 41.963C128.37 41.965 128.897 41.823 129.431 41.747C130.051 41.66 130.672 41.569 131.276 41.399C131.957 41.207 132.627 40.954 133.334 40.873C134.057 40.79 134.786 40.864 135.51 40.906C137.592 41.025 139.727 41.202 141.797 40.861C141.975 40.832 142.066 40.607 142.07 40.474C142.042 40.169 141.938 39.821 141.782 39.557C141.533 39.141 141.06 38.844 140.609 38.684ZM134.995 34.089C134.56 34.108 134.162 34.336 133.727 34.336H133.668L133.65 34.28C133.634 34.23 133.615 34.179 133.597 34.127C133.574 34.063 133.551 33.999 133.533 33.939L133.514 33.877L133.57 33.845C133.839 33.694 134.224 33.712 134.521 33.648C134.88 33.572 135.229 33.537 135.58 33.521C135.911 33.506 136.244 33.508 136.589 33.508H136.682L136.669 33.6C136.639 33.818 136.543 33.899 136.388 33.965C135.94 34.155 135.467 34.068 134.995 34.089Z" fill="white"/>
<path d="M145.599 32.021C145.517 31.521 145.405 30.965 144.857 30.792C144.501 30.679 144.119 30.69 143.758 30.593C143.386 30.493 143.037 30.323 142.684 30.173C142.235 29.983 141.786 29.875 141.316 29.755C140.44 29.531 139.458 29.136 138.545 29.384C138.18 29.483 137.864 29.701 137.515 29.84C137.184 29.971 136.823 30.04 136.477 30.12C135.708 30.298 134.923 30.452 134.13 30.455C132.753 30.461 131.296 30.485 129.982 30.943C129.855 30.987 129.726 31.041 129.611 31.11C129.509 31.171 129.411 31.282 129.288 31.297C128.827 31.353 128.644 30.71 128.196 30.694C127.997 30.687 127.796 30.676 127.597 30.705C127.378 30.737 127.184 30.843 126.984 30.929C126.514 31.132 126.007 31.266 125.614 31.612C125.297 31.891 125.052 32.247 124.673 32.452C124.143 32.739 123.706 33.173 123.161 33.434C122.923 33.548 122.693 33.614 122.43 33.615C122.257 33.615 121.933 33.534 121.791 33.678C121.252 34.223 122.636 35.377 123.128 35.377C124.052 35.377 124.417 34.547 125.094 34.118C125.484 33.871 125.948 33.767 126.363 33.569C126.833 33.345 127.278 33.069 127.728 32.807C128.22 32.521 128.538 32.243 128.624 31.657C128.624 31.656 128.634 31.588 128.634 31.588H128.704C128.908 31.588 129.175 31.989 129.299 32.125C129.731 32.596 130.059 32.702 130.678 32.516C131.007 32.417 131.34 32.331 131.676 32.262C132.066 32.182 132.461 32.128 132.856 32.088C134.195 31.951 135.631 32.059 136.925 31.639C137.327 31.508 137.715 31.333 138.125 31.226C139.5 30.865 141.197 31.255 142.46 31.831L142.492 31.846L142.503 31.879C142.628 32.254 141.323 32.643 141.153 32.938C141.082 33.061 140.985 33.453 141.073 33.59C141.291 33.928 142.309 33.821 142.623 33.79C143.26 33.729 143.88 33.557 144.512 33.462C144.616 33.446 144.916 33.432 144.966 33.32C145.139 32.929 145.673 32.472 145.599 32.021Z" fill="white"/>
<path d="M128.569 25.854C128.899 26.207 129.287 26.622 129.757 26.777L129.791 26.788L129.805 26.821L129.822 26.863C129.88 26.99 129.828 27.197 129.762 27.306C129.452 27.816 129.057 28.231 129.312 28.865C129.513 29.363 129.953 29.76 130.323 30.134C130.519 30.332 131.061 30.288 131.336 30.28C131.349 30.28 131.36 30.279 131.372 30.279C132.02 30.267 132.703 30.253 133.333 30.096C134.495 29.806 135.652 29.596 136.843 29.466C137.206 29.427 137.925 29.529 138.154 29.165C138.346 28.86 138.635 28.607 138.915 28.386C139.161 28.192 139.489 28.039 139.6 27.723C139.74 27.329 139.764 26.535 139.211 26.443C138.106 26.26 136.929 26.305 135.814 26.33C135.021 26.348 134.208 26.334 133.423 26.462C133.013 26.529 132.61 26.627 132.203 26.71C132.081 26.735 131.846 26.828 131.725 26.785C131.604 26.742 131.445 26.536 131.332 26.449C131.69 26.343 132.052 26.246 132.414 26.152C133.231 25.94 133.992 25.813 134.837 25.802C135.92 25.788 137.004 25.803 138.087 25.791C138.558 25.786 139.192 25.73 139.552 25.394C139.735 25.223 140.252 24.449 139.95 24.251C139.829 24.172 139.186 24.118 139.063 24.112C138.53 24.088 137.999 24.181 137.472 24.245C137.215 24.276 136.945 24.358 136.69 24.279L136.689 24.221C136.687 24.152 136.682 24.075 136.673 23.995L136.665 23.923L136.735 23.907C137.179 23.809 137.65 23.81 138.103 23.774C138.688 23.727 139.272 23.666 139.85 23.568C140.292 23.493 140.591 23.471 140.498 22.976C140.435 22.642 140.341 22.164 139.992 22.013C139.438 21.773 138.72 21.931 138.155 22.054C137.973 22.093 136.158 22.599 136.117 22.478C136.11 22.457 136.104 22.434 136.099 22.412C135.979 21.959 135.687 21.515 135.285 21.267C134.975 21.075 134.381 20.813 134.08 21.155C133.859 21.407 133.948 21.623 133.908 21.928C133.885 22.106 133.82 22.284 133.766 22.455C133.714 22.621 133.661 22.788 133.624 22.918L133.613 22.957L133.575 22.971C132.994 23.191 132.329 23.388 131.72 23.152C131.426 23.038 131.093 23.077 130.785 23.08C130.423 23.083 130.062 23.051 129.699 23.068C129.466 23.079 129.159 23.085 128.96 23.223C128.698 23.405 128.561 23.574 128.543 23.74C128.514 24.01 128.765 24.256 128.929 24.438C129.123 24.654 129.279 24.945 129.35 25.064C129.421 25.183 129.469 25.244 129.469 25.244C129.257 25.291 129.058 25.356 128.865 25.418C128.726 25.467 128.384 25.656 128.569 25.854ZM132.727 28.152L132.733 28.148L132.74 28.145C133.454 27.864 134.76 27.792 135.714 27.739C135.865 27.731 136.009 27.723 136.142 27.715L136.229 27.71L136.228 27.797C136.226 28.018 136.018 28.088 135.818 28.155L135.743 28.18C135.365 28.312 134.819 28.378 134.337 28.436C133.917 28.486 133.521 28.534 133.362 28.614C133.272 28.658 133.156 28.683 133.037 28.683C132.876 28.683 132.69 28.636 132.652 28.509C132.612 28.41 132.623 28.216 132.727 28.152ZM130.01 24.993C130.176 24.839 130.479 24.753 130.74 24.708C130.74 24.708 131.393 24.632 131.901 24.632C132.158 24.632 132.533 24.628 132.901 24.647L132.987 24.652C132.997 24.652 132.967 24.74 132.947 24.787C132.891 24.92 132.822 24.981 132.822 24.981L132.788 24.989C132.473 25.063 132.146 25.097 131.759 25.097C131.554 25.097 131.355 25.088 131.163 25.079C130.979 25.07 130.806 25.062 130.635 25.062C130.363 25.062 130.146 25.084 129.95 25.13L129.795 25.167L130.01 24.993Z" fill="white"/>
<path d="M185.887 25.001C186.126 25.129 186.382 25.232 186.643 25.306C187.393 25.519 188.147 25.272 188.854 25.027C189.499 24.804 190.864 24.692 191.296 24.123C191.385 24.006 191.426 23.901 191.438 23.763C191.454 23.583 191.01 23.388 190.887 23.307C190.152 22.818 189.261 22.825 188.424 22.982C187.707 23.117 186.735 23.256 186.092 23.611C186.052 23.633 186.014 23.658 185.978 23.686C185.786 23.833 185.65 24.051 185.527 24.254C185.306 24.624 185.582 24.837 185.887 25.001Z" fill="white"/>
<path d="M158.355 27.241C158.872 27.599 159.324 28.145 159.932 28.347C160.296 28.468 160.714 28.506 161.092 28.441C161.184 28.425 161.519 28.387 161.519 28.242C161.519 27.449 161.413 27.034 161.166 26.858C160.505 26.388 159.811 25.957 159.195 25.426C158.811 25.095 158.291 24.163 157.824 24.007C157.694 23.997 157.563 23.989 157.433 23.989C156.887 23.989 156.762 24.129 156.414 24.615C156.352 24.702 156.258 24.791 156.242 24.9C156.191 25.229 156.507 25.723 156.706 25.965C157.152 26.51 157.784 26.846 158.355 27.241Z" fill="white"/>
<path d="M160.805 30.726C160.705 30.597 160.589 30.469 160.443 30.394C160.41 30.377 160.375 30.369 160.336 30.369C160.148 30.369 159.923 30.567 159.774 30.699L159.65 30.807L159.598 30.743C159.598 30.672 159.401 30.451 159.36 30.38C159.288 30.254 159.221 30.125 159.142 30.004C158.869 29.581 158.394 29.506 158.095 29.128C157.857 28.828 157.808 28.4 157.448 28.199C157.146 28.031 156.727 28 156.387 27.988C156.025 27.975 155.599 28.033 155.385 28.359C155.192 28.652 155.164 29.09 155.248 29.424C155.331 29.751 155.613 29.976 155.855 30.19C156.414 30.685 157.12 31.216 157.856 31.389C158.185 31.466 158.522 31.412 158.853 31.459L158.989 31.478L158.906 31.587C158.806 31.72 158.617 31.712 158.491 31.811C158.353 31.919 158.268 32.081 158.163 32.217C157.951 32.493 157.727 32.735 157.463 32.962C156.383 33.892 155.686 35.223 154.662 36.219C154.336 36.536 154.095 36.769 153.649 36.893C153.383 36.967 153.095 37.028 152.872 37.201C152.753 37.293 152.384 37.767 152.287 37.879C152.117 38.075 151.933 38.341 152.058 38.608C152.243 39.004 152.877 39.328 153.278 39.333H153.288C154.357 39.333 155.679 37.761 156.372 37.071C156.973 36.473 157.36 35.739 157.853 35.059C158.365 34.353 158.89 33.669 159.518 33.062C160.095 32.504 160.758 31.965 161.048 31.19L161.038 31.089C161.024 30.973 160.872 30.813 160.805 30.726Z" fill="white"/>
<path d="M163.841 31.492C164.068 31.43 164.18 31.097 164.288 30.914C164.411 30.706 164.76 30.141 164.959 29.623C165.102 29.796 165.266 29.95 165.471 30.045C165.694 30.148 165.936 30.251 166.179 30.289C166.204 30.293 166.241 30.298 166.285 30.302C166.431 30.315 166.648 30.314 166.69 30.215C166.694 30.205 166.699 30.184 166.703 30.17C166.888 30.116 167.165 30.025 167.305 29.969C167.472 29.902 168.386 29.591 168.595 29.521L168.597 29.514C168.767 29.472 168.919 29.263 169.042 29.151C169.32 28.897 169.781 28.44 169.875 28.062C169.964 27.702 169.659 27.432 169.463 27.162C169.323 26.969 169.006 26.821 168.78 26.789C168.768 26.787 168.756 26.787 168.743 26.787C168.5 26.787 168.018 27.028 167.857 27.128C167.695 27.229 166.91 27.47 166.652 27.525C166.493 27.559 166.213 27.605 166.012 27.637C165.795 27.535 165.531 27.498 165.302 27.498C164.87 27.498 164.484 27.98 164.143 28.187C164.129 28.196 164.123 28.205 164.12 28.22C164.105 28.31 164.153 28.432 164.223 28.56C164.102 28.719 163.972 28.887 163.796 28.98C163.58 29.093 163.325 29.132 163.098 29.216L162.862 29.307L163.001 29.096C163.46 28.454 163.832 27.701 164.097 26.961C164.201 26.67 164.344 26.481 164.245 26.16C164.223 26.089 164.115 26.038 164.028 26.022C163.612 25.946 163.59 25.78 163.583 25.715C163.557 25.471 164.209 25.019 164.345 24.818C164.468 24.637 164.552 24.442 164.595 24.242C164.693 24.359 164.907 24.435 165.021 24.448C165.039 24.45 165.057 24.451 165.075 24.451C165.303 24.456 165.52 24.337 165.747 24.323C166.189 24.295 166.617 24.21 167.055 24.153C167.376 24.111 167.72 24.128 168.032 24.032C168.677 23.834 169.38 24.075 170.017 23.831L170.046 23.82C170.235 23.747 170.317 23.685 170.422 23.512C170.518 23.356 170.633 23.231 170.666 23.045C170.754 22.545 169.869 22.305 169.504 22.273C169.485 22.271 169.463 22.271 169.44 22.271C169.132 22.271 168.829 22.335 168.526 22.402C168.459 22.219 168.263 22.082 168.084 22.038C167.769 21.962 167.437 22.025 167.12 21.966C166.849 21.915 166.659 21.996 166.4 22.068C166.128 22.144 166.128 22.682 166.128 22.912V23.155C165.9 23.238 165.682 23.344 165.452 23.422C165.161 23.521 164.86 23.582 164.564 23.665C164.548 23.614 164.543 23.563 164.519 23.512C164.403 23.265 164.262 23.101 163.915 22.811C163.819 22.731 163.678 22.69 163.495 22.69C163.232 22.69 162.98 22.776 162.973 22.778C162.372 22.95 162.279 24.299 161.878 24.76C161.595 25.085 161.22 25.415 161.168 25.869C161.134 26.169 161.343 26.359 161.504 26.579C161.808 26.995 161.759 27.558 162.063 27.967C162.152 28.087 162.436 28.165 162.436 28.325C162.436 28.409 162.396 28.502 162.341 28.631L162.305 28.716C162.218 28.924 162.064 29.101 161.954 29.297C161.838 29.505 161.717 29.709 161.551 29.882C161.311 30.133 161.037 30.379 160.976 30.737C160.915 31.095 161.73 31.511 162 31.523C162.247 31.534 162.501 31.484 162.75 31.481C162.939 31.479 163.129 31.479 163.319 31.483C163.49 31.487 163.675 31.538 163.841 31.492ZM167.562 27.994C167.564 27.994 167.656 27.978 167.656 27.978C167.656 28.139 167.69 28.33 167.619 28.477C167.606 28.503 167.586 28.523 167.567 28.545C167.426 28.592 167.289 28.665 167.152 28.712C166.978 28.773 166.796 28.806 166.613 28.83C166.582 28.592 166.546 28.352 166.464 28.142C166.763 28.235 167.275 28.041 167.562 27.994Z" fill="white"/>
<path d="M165.938 25.7C166.396 25.7 166.865 25.649 167.32 25.598C167.771 25.548 168.15 25.353 168.485 25.053C168.612 24.939 168.736 24.803 168.735 24.622C168.735 24.521 168.655 24.306 168.521 24.306C168.511 24.306 168.502 24.307 168.493 24.309C168.057 24.411 167.703 24.538 167.243 24.546C166.772 24.554 166.299 24.503 165.832 24.59C165.68 24.618 165.538 24.736 165.427 24.838C165.355 24.905 165.132 25.064 165.122 25.158C165.096 25.389 165.287 25.553 165.473 25.629C165.586 25.676 165.747 25.7 165.938 25.7Z" fill="white"/>
<path d="M164.794 26.847C164.818 27.018 165.004 27.167 165.163 27.207C165.199 27.216 165.234 27.22 165.27 27.221C165.434 27.223 165.598 27.146 165.757 27.116C166.508 26.976 167.152 27.035 167.893 26.725C168.301 26.555 168.893 26.316 168.93 25.802C168.937 25.703 168.92 25.646 168.904 25.628C168.903 25.627 168.878 25.601 168.762 25.601C168.579 25.601 168.333 25.663 168.266 25.688C167.763 25.873 167.227 26.003 166.689 26.013C166.378 26.019 166.067 25.971 165.757 26.017C165.521 26.052 165.184 26.152 165.028 26.348C164.93 26.472 164.771 26.678 164.794 26.847Z" fill="white"/>
<path d="M174.517 28.143C174.45 28.102 174.376 28.081 174.304 28.061C174.24 28.043 174.18 28.026 174.13 27.996C174.055 27.951 174.039 27.893 174.028 27.85C174.019 27.818 174.014 27.796 173.987 27.771C173.987 27.771 173.981 27.768 173.964 27.768C173.825 27.768 173.502 27.924 173.352 28.029C173.223 28.119 173.017 28.173 172.851 28.217C172.77 28.238 172.692 28.258 172.66 28.275C172.191 28.509 172.611 27.65 172.675 27.522C172.834 27.205 173.028 26.907 173.203 26.599C173.568 25.956 173.557 25.126 173.976 24.527C174.096 24.356 174.013 24.149 173.953 24.041C173.726 23.633 173.335 23.711 172.937 23.759C172.036 23.868 172.53 25.23 171.783 25.442C171.605 25.492 171.458 25.419 171.294 25.374C171.37 25.225 171.44 25.077 171.501 24.921C171.74 24.315 172.234 24.008 172.639 23.53C172.897 23.226 173.232 22.781 173.308 22.38C173.385 21.974 173.141 21.906 172.801 21.76C172.472 21.619 172.317 21.612 172.03 21.852C171.913 21.949 171.781 22.025 171.575 22.14C171.297 22.295 171.136 22.963 170.958 23.231C170.717 23.593 170.431 23.923 170.162 24.264C169.75 24.787 169.249 25.513 169.904 26.072C170.02 26.171 170.196 26.144 170.336 26.186C170.465 26.225 170.589 26.281 170.708 26.343L170.792 26.387L170.735 26.463C170.72 26.484 170.692 26.515 170.658 26.553C170.481 26.755 170.335 26.99 170.203 27.224C170.006 27.572 169.928 28.047 169.793 28.429C169.664 28.793 169.453 29.263 169.551 29.657C169.585 29.793 169.709 29.985 169.848 30.034C170.221 30.166 170.78 30.141 171.183 30.223C171.722 30.333 172.289 30.451 172.842 30.371C172.981 30.351 173.122 30.302 173.27 30.204C173.689 29.927 173.978 29.47 174.274 29.075C174.437 28.858 174.54 28.645 174.592 28.423C174.639 28.217 174.623 28.207 174.517 28.143Z" fill="white"/>
<path d="M172.364 34.189C171.756 33.906 171.197 33.729 170.519 33.823C170.149 33.874 169.783 34.057 169.423 34.159C168.997 34.28 168.566 34.385 168.141 34.512C167.659 34.656 166.533 34.889 166.46 34.908C166.415 34.92 166.19 35.036 166.151 34.981C166.122 34.941 166.092 34.888 166.091 34.841C166.09 34.812 166.094 34.775 166.098 34.735C166.105 34.671 166.108 34.617 166.102 34.568C166.143 34.553 166.183 34.538 166.224 34.522C166.858 34.273 167.61 34.045 168.279 33.92C168.527 33.873 168.742 33.85 168.992 33.824C169.232 33.812 169.445 33.829 169.657 33.766C169.801 33.723 169.87 33.63 169.99 33.552C170.095 33.484 170.213 33.44 170.306 33.354C170.616 33.068 170.855 32.797 171.212 32.558C171.438 32.408 171.962 31.942 171.994 31.805C172.111 31.3 171.562 31.154 171.256 30.966C170.479 30.488 169.464 30.285 168.568 30.19C168.553 30.188 168.536 30.188 168.518 30.188C167.694 30.188 166.943 30.58 166.194 30.872C165.465 31.156 164.713 31.378 163.982 31.657C163.646 31.785 163.027 32.035 162.838 32.367C162.732 32.553 162.825 32.768 162.928 32.934C163.007 33.061 163.298 33.422 163.468 33.447C163.887 33.508 164.486 33.459 164.907 33.194C165.505 32.817 165.875 32.411 166.599 32.237C167.238 32.084 167.902 32.074 168.545 31.938C168.68 31.91 169.019 31.78 169.107 31.943C169.148 32.018 169.12 32.197 169.074 32.372C168.452 32.477 167.827 32.594 167.207 32.709C166.332 32.871 165.553 33.298 164.777 33.634C164.485 33.76 164.177 33.864 163.874 33.959C163.839 33.97 163.652 34 163.587 34.028C163.579 34.031 163.575 34.033 163.573 34.034C163.482 34.089 163.405 34.144 163.405 34.393C163.405 34.473 163.468 34.577 163.529 34.678C163.805 35.134 163.619 35.688 163.878 36.136C163.987 36.324 164.353 36.421 164.478 36.441C165.499 36.61 166.792 36.233 167.807 36.099C168.575 35.998 169.341 35.741 170.117 35.741C170.405 35.741 170.692 35.722 170.575 36.116C170.361 36.827 169.934 37.607 169.602 38.272C169.075 39.326 166.467 39.36 165.514 39.11C165.083 38.996 164.682 38.795 164.254 38.674C164.051 38.617 163.363 38.429 163.193 38.658C163.138 38.733 163.195 38.926 163.207 39.01C163.259 39.372 163.657 39.677 163.91 39.916C165.092 41.032 166.867 41.34 168.427 41.463C169.022 41.51 169.497 41.556 169.909 41.463C170.353 41.363 170.723 41.1 171.092 40.502C171.639 39.612 171.914 38.686 172.359 37.751C172.615 37.213 173.272 36.694 173.355 36.108C173.411 35.711 173.42 35.231 173.242 34.861C173.074 34.517 172.693 34.342 172.364 34.189Z" fill="white"/>
<path d="M203.363 30.716C203.195 30.716 203.071 30.829 202.94 30.948C202.887 30.996 202.832 31.047 202.774 31.088C202.553 31.246 202.44 31.528 202.248 31.719C202.013 31.953 201.72 32.12 201.481 32.35C201.239 32.583 201.046 32.993 200.717 33.114C200.38 33.238 199.973 32.997 199.697 32.824C199.413 32.646 199.205 32.387 199.029 32.105C198.553 31.341 198.058 30.587 198.363 29.642C198.54 29.093 198.943 28.593 198.887 27.988C198.862 27.713 198.332 27.577 198.124 27.455C197.829 27.281 197.5 27.01 197.14 27.01C196.938 27.01 196.609 27.091 196.375 27.197C196.219 27.268 196.058 27.336 195.893 27.401C195.964 27.256 196.038 27.111 196.098 26.961C196.157 26.814 196.353 26.528 196.368 26.339C196.742 26.333 197.116 26.321 197.492 26.294C198.239 26.239 199.025 26.166 199.762 26.029C200.257 25.937 200.435 25.721 200.271 25.214C200.128 24.771 199.822 24.328 199.371 24.15C198.543 23.824 197.605 23.877 196.681 24.024C197.039 23.796 197.343 23.491 197.531 23.048C198.073 21.769 196.249 21.414 195.412 21.606C195.055 21.688 195.136 22.29 195.025 22.551C194.851 22.962 194.434 23.221 194.119 23.515C193.826 23.789 193.584 24.112 193.279 24.374C193.054 24.567 192.76 24.694 192.475 24.814C191.715 24.979 190.958 25.161 190.205 25.356C189.301 25.591 188.403 25.953 187.457 25.957C186.758 25.96 183.997 25.236 184.535 26.84C184.68 27.273 185.351 27.566 185.75 27.715C185.851 27.753 185.951 27.779 186.05 27.795C186.456 27.862 186.85 27.768 187.267 27.68C187.424 27.647 187.582 27.62 187.74 27.59C187.762 27.724 187.79 27.909 187.812 28.108C187.553 28.161 187.294 28.213 187.038 28.282C186.585 28.404 186.133 28.583 185.659 28.597C185.383 28.605 185.144 28.464 184.871 28.464C184.851 28.464 184.83 28.465 184.81 28.466C184.622 28.479 184.315 28.722 184.208 28.818C183.826 29.162 183.482 30.069 183.854 30.547C183.963 30.687 184.142 30.738 184.338 30.745C184.617 30.755 184.933 30.676 185.134 30.637C185.91 30.485 186.641 30.134 187.424 30.025C187.54 30.009 187.655 29.984 187.77 29.963C187.752 30.169 187.733 30.369 187.715 30.536C187.104 30.746 186.478 30.903 185.847 31.042C185.197 31.186 184.572 31.438 183.924 31.571C183.559 31.646 183.178 31.666 182.807 31.66C182.484 31.655 182.199 31.564 181.918 31.768C181.685 31.937 181.471 32.191 181.379 32.465C181.259 32.824 181.579 33.776 182.002 33.872C182.015 33.875 182.041 33.878 182.088 33.878C183.159 33.878 184.137 33.18 185.114 32.878C185.89 32.638 186.689 32.501 187.489 32.371C187.438 32.741 187.385 33.02 187.325 33.124C187.191 33.359 187.013 33.664 186.716 33.715C186.434 33.763 186.292 33.503 186.06 33.397C186.022 33.379 185.974 33.37 185.918 33.37C185.543 33.37 184.28 33.749 184.501 34.31C184.567 34.478 184.699 34.612 184.782 34.771C185.181 35.541 185.925 35.682 186.691 35.938C186.937 36.02 187.374 36.367 187.711 36.401C187.415 36.452 187.118 36.491 186.816 36.51C186.003 36.561 184.8 36.025 184.078 36.505C183.425 36.939 183.841 38.231 184.601 38.321C184.724 38.335 184.846 38.342 184.968 38.342C186.404 38.341 187.858 37.932 189.297 37.846C189.356 37.842 189.416 37.84 189.475 37.837C189.466 37.851 189.455 37.859 189.447 37.874C189.019 38.584 188.762 39.13 187.933 39.435C187.414 39.627 186.257 39.703 186.087 40.366C185.925 40.996 186.702 41.417 187.257 41.578C187.338 41.602 187.415 41.62 187.483 41.632C188.651 41.843 189.763 41.167 190.888 40.961C191.912 40.773 192.949 40.696 193.978 40.518C194.231 40.474 194.716 40.336 195.005 40.252C195.268 40.775 195.975 41.327 196.495 41.447C196.537 41.457 196.584 41.462 196.632 41.462C197.171 41.462 197.891 41.075 198.177 40.625C198.337 40.374 198.593 39.746 198.376 39.475C197.861 38.831 197.242 38.068 196.874 37.332C196.767 37.119 196.61 36.974 196.426 36.872C197.245 36.89 198.066 36.754 198.478 35.932C198.564 35.759 198.688 35.515 198.73 35.281C199.007 35.438 199.326 35.521 199.575 35.732C199.815 35.935 200.008 36.184 200.343 36.212C200.417 36.218 200.492 36.219 200.567 36.215C201.05 36.188 201.538 35.959 201.861 35.598C202.151 35.274 202.351 34.88 202.627 34.543C203 34.089 203.264 33.605 203.514 33.075C203.814 32.437 204.487 31.291 204.327 31.101C204.111 30.909 203.653 30.716 203.363 30.716ZM195.735 29.238C195.948 29.228 196.263 29.136 196.283 29.4C196.314 29.808 196.36 30.215 196.434 30.616C196.267 30.593 196.072 30.607 195.917 30.537C195.647 30.415 195.406 30.225 195.183 30.034C195.064 29.932 194.904 29.881 194.722 29.863C194.756 29.755 194.784 29.645 194.824 29.538C194.835 29.509 194.85 29.482 194.861 29.454C195.141 29.345 195.436 29.251 195.735 29.238ZM193.782 38.317C192.996 38.429 192.105 39.211 191.293 38.893C190.963 38.764 191.149 38.592 191.334 38.337C191.511 38.094 191.727 37.858 191.865 37.587C192.036 37.538 192.205 37.482 192.37 37.407C193.049 37.097 193.685 36.926 194.345 36.854C194.585 37.269 194.672 37.695 194.706 38.128C194.504 38.171 193.944 38.294 193.782 38.317ZM197.436 34.667C196.831 34.59 196.359 34.568 195.739 34.614C194.967 34.672 194.218 34.902 193.447 34.972C191.556 35.144 189.783 35.998 187.922 36.359C187.946 36.347 187.973 36.344 187.994 36.325C188.314 36.032 188.69 35.682 188.904 35.305C189.083 34.991 189.007 34.669 189.051 34.326C189.099 33.952 189.169 33.581 189.245 33.211C189.335 32.769 189.416 32.341 189.484 31.914C189.805 31.807 190.125 31.696 190.454 31.606C190.948 31.471 191.557 31.279 191.104 30.68C191.075 30.642 191.047 30.605 191.023 30.568C190.746 30.153 190.136 30.084 189.7 30.084C189.675 30.084 189.653 30.081 189.629 30.081C189.628 30.002 189.634 29.927 189.631 29.847C189.626 29.736 189.638 29.625 189.645 29.514C189.687 29.504 189.729 29.493 189.771 29.483C190.047 29.421 190.426 29.465 190.634 29.232C190.797 29.05 190.789 28.761 190.789 28.533C190.789 28.281 190.504 27.679 190.231 27.636C190.218 27.634 190.203 27.633 190.187 27.633C190.114 27.633 190.015 27.652 189.908 27.679C189.909 27.663 189.913 27.646 189.914 27.63C189.924 27.479 189.75 27.36 189.651 27.264C189.634 27.247 189.621 27.233 189.604 27.216C190.756 26.961 191.901 26.671 193.068 26.491C193.539 26.418 194.009 26.385 194.478 26.367C194.427 26.923 193.977 27.458 193.655 27.885C193.454 27.888 193.252 27.887 193.052 27.891C192.581 27.901 191.758 27.913 191.695 28.54C191.671 28.779 192.007 28.955 192.157 29.097C192.316 29.247 192.455 29.424 192.629 29.557C192.627 29.564 192.623 29.57 192.62 29.577C192.479 29.992 192.417 30.24 192.363 30.458L192.356 30.487C192.159 31.276 191.271 31.771 190.884 32.455C190.797 32.609 190.591 32.851 190.533 33.065C190.416 33.071 190.293 33.073 190.19 33.091C189.875 33.143 189.651 33.282 189.508 33.807C189.43 34.091 189.427 34.129 189.562 34.534C189.666 34.851 189.765 35.015 189.94 35.084C190.379 35.258 191.051 35.023 191.482 34.915C192.031 34.777 192.572 34.605 193.132 34.518C193.952 34.391 194.864 34.471 195.609 34.047C195.639 34.03 195.67 34.013 195.702 33.996C195.872 33.905 196.048 33.81 196.248 33.544C196.401 33.34 196.526 33.026 196.367 32.781C196.246 32.595 196.013 32.716 195.802 32.722C195.56 32.729 194.737 32.733 194.737 32.733C194.665 32.733 194.59 32.731 194.512 32.729C194.203 32.721 193.895 32.734 193.589 32.755C193.595 32.552 193.737 32.341 193.84 32.164C193.928 32.013 194.011 31.858 194.09 31.702C194.269 31.747 194.546 31.818 194.676 31.855C194.759 31.879 194.837 31.926 194.92 31.976C195.108 32.09 195.285 32.127 195.462 32.128C195.731 32.129 196 32.045 196.305 32.018C196.468 32.003 196.679 31.947 196.838 31.899C197.124 32.484 197.54 33.013 197.843 33.585C197.987 33.856 198.11 34.138 198.202 34.431C198.224 34.501 198.243 34.572 198.262 34.642C197.992 34.618 197.671 34.697 197.436 34.667Z" fill="white"/>
<path d="M215.668 26.467C215.982 26.444 216.307 26.356 216.509 26.292C217.322 26.033 218.186 25.805 218.952 25.422C219.663 25.067 219.906 24.294 219.766 23.547C219.681 23.093 219.357 23.088 219.016 22.855C218.53 22.522 218.257 22.558 217.723 22.804C217.37 22.967 217.092 23.162 216.823 23.35C216.551 23.54 215.8 24.124 215.335 24.507C214.888 24.875 214.838 25.206 214.784 25.806C214.732 26.387 215.187 26.503 215.668 26.467Z" fill="white"/>
<path d="M223.683 34.539C223.615 34.1 223.776 33.652 223.834 33.203C223.964 33.282 224.092 33.361 224.194 33.439C224.479 33.659 224.859 34.012 225.251 33.994C225.284 33.992 225.316 33.988 225.349 33.981C226.172 33.805 226.478 32.864 226.097 32.208C225.773 31.651 225.173 31.231 224.627 30.912C224.489 30.831 223.977 30.381 223.751 30.18C223.75 30.159 223.749 30.137 223.747 30.115C224.068 30.047 224.392 29.989 224.719 29.973C225.09 29.954 225.491 30.022 225.841 29.863C226.229 29.686 226.513 29.187 226.786 28.868L226.807 28.844C227.016 28.601 226.914 28.412 226.914 28.412C226.772 28.217 226.65 28.048 226.375 27.843C225.65 27.3 224.471 27.594 223.489 27.947C223.475 27.533 223.489 27.123 223.521 26.713C224.072 26.501 224.628 26.301 225.177 26.082C225.707 25.87 225.801 25.532 225.809 25.001C225.811 24.819 225.785 24.72 225.642 24.631C225.081 24.28 224.388 24.471 223.789 24.534C223.794 24.496 223.8 24.458 223.805 24.42C223.873 23.916 223.869 23.351 223.301 23.153C223.266 23.141 223.233 23.129 223.205 23.118C222.866 22.982 221.869 22.842 221.599 23.134C221.557 23.179 221.521 23.213 221.491 23.243C221.37 23.358 221.349 23.379 221.362 23.795C221.408 25.198 221.478 26.586 221.306 27.99C221.287 28.152 221.283 28.303 221.279 28.449C221.276 28.563 221.273 28.673 221.262 28.778C220.406 29.072 219.514 29.319 218.648 29.37C218.213 29.395 217.92 29.266 217.619 29.618C217.186 30.124 218.054 30.836 218.439 31.044C218.619 31.141 218.807 31.193 218.998 31.213C219.491 31.265 220.008 31.104 220.495 30.961C220.399 31.123 220.308 31.37 220.254 31.452C220.087 31.71 219.878 31.936 219.653 32.143C219.208 32.554 218.695 32.881 218.219 33.254C217.864 33.532 217.129 33.873 216.77 34.313C216.789 34.015 216.811 33.717 216.838 33.42C216.919 32.518 216.736 31.617 216.809 30.715C216.844 30.287 216.892 29.975 216.927 29.747C216.932 29.715 216.935 29.693 216.939 29.665C217.013 29.579 217.07 29.512 217.099 29.476C217.42 29.084 217.971 28.973 218.305 28.594C218.743 28.097 218.428 27.201 218.22 26.683C218.16 26.533 218.007 26.461 217.75 26.461C217.124 26.461 216.438 26.752 215.974 27.161C215.637 27.458 215.467 27.914 215.109 28.183C214.053 28.975 213.365 30.094 212.405 30.976C211.715 31.609 210.806 32.072 209.953 32.443C209.658 32.571 208.913 33.129 209.133 33.525C209.444 34.084 210.774 34.081 211.308 34.097C211.374 34.099 211.433 34.101 211.488 34.101C211.658 34.101 211.778 34.084 211.922 33.993C212.908 33.373 213.803 32.581 214.767 31.922C214.786 31.909 214.81 31.89 214.832 31.873C215.164 33.452 214.383 34.834 214.423 36.368C214.437 36.907 214.261 37.448 214.353 37.986C214.424 38.403 215.124 39.154 215.476 39.386C215.647 39.499 215.795 39.55 215.924 39.552C216.827 39.563 216.789 37.159 216.752 36.552C216.731 36.208 216.727 35.864 216.729 35.52C216.894 35.669 217.267 35.937 217.498 36.002C217.54 36.014 217.577 36.019 217.606 36.015C217.947 35.97 218.201 35.56 218.491 35.398C218.894 35.174 219.285 34.988 219.641 34.672C219.877 34.463 220.085 34.298 220.278 34.055C220.439 33.853 220.672 33.733 220.831 33.541C220.867 33.497 221.081 33.135 221.235 32.875C221.198 33.305 221.146 33.734 221.059 34.152C220.972 34.571 220.705 34.983 220.659 35.399C220.606 35.877 220.908 36.182 221.226 36.48C221.509 36.746 221.775 36.965 222.046 37.054C222.374 37.162 222.711 37.078 223.1 36.652C223.598 36.112 223.794 35.258 223.683 34.539Z" fill="white"/>
<path d="M228.266 28.474C228.367 28.516 228.421 28.54 228.453 28.554C228.471 28.562 228.48 28.566 228.483 28.567C228.495 28.568 228.515 28.569 228.566 28.578C228.593 28.583 228.621 28.585 228.65 28.585C228.881 28.585 229.154 28.445 229.362 28.382C229.786 28.251 230.209 28.116 230.635 27.991C230.992 27.887 231.43 27.702 231.807 27.718C231.937 27.724 232.092 27.818 232.218 27.799C232.521 27.754 232.761 27.506 232.926 27.266C232.959 27.218 233.477 26.573 233.219 26.473C232.633 26.247 232.135 25.948 231.523 25.88C231.184 25.843 230.814 26.058 230.475 26.132C229.706 26.299 228.915 26.311 228.133 26.359C227.547 26.395 226.751 26.508 226.877 27.293C226.978 27.922 227.749 28.258 228.266 28.474Z" fill="white"/>
<path d="M235.376 28.696C235.009 28.479 234.559 28.39 234.14 28.346C233.704 28.3 233.241 28.229 232.806 28.212C232.35 28.194 231.859 28.293 231.414 28.38C230.372 28.584 229.379 29.009 228.33 29.176C227.846 29.253 227.183 28.996 226.795 29.384C226.404 29.774 226.313 30.585 226.281 31.091C226.252 31.544 226.407 31.75 226.888 31.75C227.488 31.75 228.088 31.603 228.689 31.516C228.775 31.723 228.796 31.931 228.817 32.211C228.828 32.354 228.84 32.516 228.864 32.707C229.043 34.136 229.128 35.482 229.012 36.925C228.974 37.404 228.91 37.509 228.56 37.674C227.693 38.082 226.742 38.023 225.813 37.954C225.094 37.9 224.384 37.935 223.675 38.073C223.12 38.181 222.821 38.523 223.36 38.938C223.621 39.139 223.975 39.163 224.242 39.381C224.68 39.738 225.004 39.958 225.55 40.127C226.111 40.301 228.122 40.861 228.572 40.934C228.993 41.003 229.454 41.094 230.261 41.118C230.656 41.13 231.172 40.466 231.246 40.062C231.283 39.861 231.24 39.353 231.19 38.472C231.116 37.17 231.14 35.851 231.213 34.55C231.268 33.561 231.277 32.485 231.597 31.541C231.665 31.34 231.726 31.151 231.724 31.004C231.964 30.961 232.207 30.926 232.456 30.911C233.261 30.864 234.097 30.908 234.885 30.759C235.146 30.71 235.533 30.634 235.874 30.54C236.218 30.444 236.29 30.404 236.28 30.196C236.25 29.617 235.873 28.99 235.376 28.696Z" fill="white"/>
<path d="M264.232 38.495C263.353 37.901 262.269 37.8 261.345 37.307C259.957 36.565 258.558 36.027 257.291 35.064C256.258 34.279 255.61 33.098 254.852 32.07C254.371 31.417 253.911 30.749 253.454 30.079C254.67 30.03 255.873 30.018 257.101 29.823C257.657 29.734 258.791 29.82 259.225 29.423C259.703 28.986 259.664 28.068 259.595 27.488C259.516 26.818 258.078 26.689 257.592 26.651C256.651 26.577 255.7 26.75 254.799 27.012C254.157 27.199 253.53 27.437 252.904 27.681C253.101 26.326 253.265 24.968 253.47 23.615C253.535 23.189 253.67 22.772 253.513 22.35C253.388 22.011 253.087 21.659 252.691 21.659C252.173 21.659 251.186 22.014 251.361 22.674C251.388 22.776 251.419 22.893 251.432 23.024C251.549 24.19 251.548 25.139 251.233 26.284C251.042 26.979 250.846 27.745 250.65 28.494C250.258 28.612 249.861 28.715 249.455 28.787C248.195 29.009 246.931 28.899 245.663 28.877C245.01 28.866 243.65 28.862 243.692 29.829C243.717 30.413 243.916 31.18 244.394 31.418C244.599 31.521 244.815 31.578 245.038 31.601C246.16 31.718 247.454 30.964 248.466 30.727C249.018 30.597 249.576 30.491 250.136 30.401C249.805 31.644 249.496 32.886 248.79 33.986C247.914 35.35 246.73 36.523 245.4 37.445C244.91 37.784 242.949 38.842 243.028 39.684C243.085 40.29 242.701 41.703 243.693 41.703C243.837 41.703 244.003 41.681 244.174 41.64C246.844 41 248.76 39.059 250.085 36.743C250.555 35.922 251.13 35.069 251.442 34.173C251.634 33.622 252.015 32.349 252.234 31.558C252.925 32.226 253.278 33.121 253.72 33.963C254.028 34.548 254.447 34.641 254.753 35.227C255.02 35.74 255.252 36.428 255.462 36.969C255.818 37.884 256.274 38.898 257.134 39.444C258.102 40.057 259.587 40.326 260.714 40.36C260.806 40.363 260.899 40.363 260.992 40.361C261.325 40.355 261.656 40.321 261.985 40.271C262.283 40.225 262.576 40.149 262.875 40.106C263.412 40.029 263.717 40 264.136 39.945C264.434 39.906 264.626 39.782 264.765 39.47C264.948 39.06 264.521 38.69 264.232 38.495Z" fill="white"/>
<path d="M274.876 31.084C274.898 30.836 274.881 30.665 274.838 30.545C275.167 30.438 275.563 30.21 275.657 30.166C275.91 30.047 276.147 29.94 276.227 29.647C276.385 29.069 276.406 28.498 276.39 27.901C276.374 27.311 276.008 26.81 275.703 26.333C275.47 25.97 275.272 25.573 274.951 25.276C274.664 25.011 274.277 25.054 273.926 25.122C273.758 25.155 273.224 25.236 273.234 25.489C273.278 26.531 272.899 27.88 273.514 28.8C273.838 29.286 274.291 29.719 274.355 30.321C274.108 30.36 273.804 30.482 273.502 30.546C272.403 30.778 271.532 31.995 270.666 32.639C270.101 33.059 270.057 33.888 270.48 34.436C270.605 34.598 270.755 34.694 270.921 34.738C271.818 34.978 273.19 33.721 273.681 33.244C274.273 32.672 274.801 31.929 274.876 31.084Z" fill="white"/>
<path d="M290.914 28.816C290.567 28.683 288.236 28.448 287.403 28.384C287.567 27.993 287.704 27.595 287.745 27.373C287.831 26.916 288.001 26.419 288.113 25.972C288.233 25.493 288.261 24.997 288.369 24.516C288.45 24.152 288.588 23.811 288.637 23.439C288.694 23.005 288.509 22.868 288.231 22.661C288.138 22.592 288.042 22.52 287.944 22.43C287.61 22.12 287.303 21.982 286.948 21.982C285.975 21.982 285.033 22.082 284.092 22.339C283.745 22.433 283.348 22.72 283.5 23.131C283.591 23.379 283.795 23.58 283.845 23.594C283.863 23.598 283.911 23.604 284.035 23.604C284.419 23.604 285.933 23.191 286.06 23.734C286.087 23.852 286.078 23.988 286.059 24.129C286.038 24.13 286.016 24.131 285.999 24.135C285.367 24.276 284.196 23.986 283.782 24.625C283.69 24.768 283.659 24.88 283.688 24.968C283.737 25.118 283.974 25.218 284.213 25.307C284.421 25.385 284.62 25.423 284.82 25.423C285.15 25.423 285.474 25.342 285.8 25.29C285.753 25.514 285.701 25.737 285.649 25.961C285.179 26.082 284.632 26.027 284.165 26.052C283.892 26.067 283.768 26.073 283.65 26.354C283.458 26.81 283.617 27.08 283.934 27.369C284.237 27.645 284.537 27.68 284.764 27.68C284.869 27.68 284.975 27.686 285.08 27.684C285.045 27.788 285.013 27.892 284.99 27.999C284.966 28.109 284.887 28.228 284.783 28.346C284.277 28.373 283.814 28.433 283.374 28.511C283.374 28.456 283.372 28.401 283.37 28.35C283.353 27.893 283.073 27.521 282.786 27.187C282.746 27.14 282.628 27.039 282.469 26.914C282.668 26.628 282.832 26.254 282.891 26.077C282.987 25.788 282.894 25.582 282.725 25.426C283.017 25.286 283.249 24.974 283.256 24.78C283.27 24.424 282.691 24.034 282.482 23.791C282.448 23.751 282.417 23.718 282.384 23.682C282.825 23.297 283.16 22.811 283.093 22.174C283.083 22.08 283.057 22.055 283.052 22.051C282.703 21.77 281.836 21.097 281.381 21.389C281.145 21.541 281.051 21.819 280.953 22.113C280.902 22.266 280.849 22.423 280.774 22.574C280.726 22.669 280.663 22.773 280.597 22.877C280.025 22.862 279.474 23.099 278.92 23.209C278.899 22.983 278.845 22.769 278.727 22.581C278.448 22.139 278.132 21.905 277.733 21.844C277.628 21.828 277.524 21.82 277.425 21.82C277.162 21.82 276.947 21.877 276.804 21.986C276.61 22.132 276.514 22.439 276.369 22.903L276.302 23.116C276.083 23.797 276.498 24.399 276.543 25.071C276.582 25.659 276.551 26.253 276.666 26.834C276.765 27.334 276.861 27.831 276.909 28.339C276.918 28.437 276.925 29.282 276.914 29.713C276.901 29.713 276.889 29.714 276.873 29.712C276.23 29.649 275.949 30.58 275.951 30.588C276.046 30.947 277.018 31.066 277.317 31.103C278.027 31.191 278.741 31.071 279.436 30.932C280.784 30.661 282.111 30.111 283.484 30.019C284.92 29.923 286.348 30.189 287.782 30.2C288.036 30.202 288.518 30.279 288.538 30.282L288.629 30.296L288.603 30.384C288.399 31.08 286.963 32.005 287.899 32.65C288.031 32.741 288.175 32.882 288.341 32.906C288.709 32.959 290.09 32.36 290.773 31.873C291.429 31.405 292.112 30.956 292.518 30.238C292.944 29.48 291.455 29.024 290.914 28.816ZM278.657 27.763C278.635 27.208 278.632 26.653 278.652 26.099C278.652 26.137 278.657 26.175 278.673 26.209C278.765 26.397 279.122 26.414 279.289 26.512C279.507 26.64 279.675 26.834 279.829 27.036C279.585 27.254 278.944 27.609 278.657 27.763ZM280.722 25.847C280.092 25.645 279.496 25.631 278.86 25.795C278.746 25.824 278.663 25.95 278.653 26.073C278.66 25.875 278.673 25.678 278.687 25.481C279.169 25.44 279.712 25.187 280.133 25.005C280.335 24.917 280.531 24.816 280.727 24.716C280.801 24.794 280.877 24.874 280.952 24.955C281.049 25.059 281.139 25.154 281.222 25.24C281.055 25.408 280.931 25.63 280.842 25.794C280.824 25.826 280.81 25.85 280.795 25.877C280.771 25.868 280.744 25.854 280.722 25.847ZM279.169 23.615C279.197 23.639 279.228 23.663 279.26 23.691C279.369 23.783 279.532 23.872 279.698 23.958C279.672 23.982 279.646 24.012 279.62 24.034C279.352 24.269 279.015 24.463 278.779 24.596C278.849 24.187 278.94 23.736 278.924 23.317C278.959 23.439 279.038 23.507 279.169 23.615ZM278.808 29.574C278.809 29.545 278.81 29.519 278.809 29.485C278.8 29.301 278.771 29.12 278.744 28.938C278.907 29 279.087 29.043 279.227 29.062C279.317 29.074 279.39 29.077 279.432 29.068C279.847 28.988 280.181 28.663 280.555 28.488C280.632 28.452 280.737 28.385 280.851 28.308C280.878 28.341 280.905 28.373 280.932 28.406C281.105 28.619 281.279 28.83 281.42 28.974C280.599 29.201 279.774 29.433 278.808 29.574Z" fill="white"/>
<path d="M288.274 33.342C288.007 33.342 287.611 33.449 287.262 33.544C286.508 33.748 285.784 33.724 285.011 33.773C284.733 33.79 284.458 33.828 284.184 33.873C284.227 33.832 284.271 33.792 284.313 33.748C284.793 33.249 285.362 32.851 285.942 32.477C286.178 32.325 286.635 32.163 286.618 31.828C286.607 31.6 286.377 31.117 285.903 30.755C285.404 30.373 284.618 30.453 284.026 30.484C283.193 30.527 282.387 30.739 281.586 30.958C280.104 31.362 278.634 31.754 277.115 31.994C276.725 32.056 276.164 32.117 275.877 32.419C275.686 32.62 275.884 32.904 275.884 32.904C276.208 33.427 277.134 33.651 277.636 33.676C278.646 33.726 279.625 33.198 280.522 32.804C280.847 32.661 283.504 31.26 283.536 31.997C283.551 32.347 283.189 33.04 282.916 33.26C282.875 33.293 282.82 33.314 282.767 33.336C282.51 33.095 282.209 32.894 281.868 32.84C281.577 32.794 281.007 32.905 280.936 33.273C280.917 33.371 280.991 33.462 281.077 33.568C281.093 33.587 281.108 33.607 281.124 33.627C281.287 33.836 281.374 34.08 281.459 34.339C280.019 34.525 279.011 34.778 277.508 35.154C277.084 35.26 276.127 35.396 275.692 35.385C275.267 35.374 274.484 35.201 274.11 35.491C273.636 35.859 273.461 36.032 273.511 36.402C273.547 36.672 273.775 36.738 274.038 36.937C274.267 37.11 274.559 37.285 274.797 37.213C275.386 37.036 276.162 36.895 276.708 36.774C277.446 36.61 277.802 36.595 278.551 36.5C279.581 36.369 280.616 36.28 281.65 36.178C281.644 36.364 281.639 36.527 281.639 36.633C281.639 36.771 281.647 36.907 281.657 37.065C281.673 37.337 281.694 37.676 281.676 38.156C281.65 38.862 281.593 38.951 281.355 39.212L281.314 39.257C281.052 39.548 280.528 39.715 279.922 39.889C278.709 40.236 277.311 39.865 276.068 39.929C275.874 39.939 275.706 39.948 275.587 39.948C275.334 39.948 275.261 40.139 275.263 40.187C275.303 41.145 276.795 41.406 277.481 41.705C278.279 42.053 279.088 42.199 279.925 42.413C280.105 42.459 280.29 42.507 280.476 42.548C281.648 42.803 282.442 42.424 283.101 41.444C283.534 40.8 283.504 40.059 283.569 39.318C283.666 38.22 283.609 37.102 283.551 36.002C283.55 35.989 283.552 35.976 283.552 35.963C284.797 35.798 286.059 35.594 287.311 35.619C288.259 35.637 289.226 36.106 289.956 35.254C290.617 34.48 288.931 33.342 288.274 33.342Z" fill="white"/>
<path d="M73.338 55.78H71.447L68.018 50.553C67.817 50.247 67.677 50.017 67.6 49.862H67.577C67.608 50.156 67.623 50.605 67.623 51.208V55.78H65.854V47.461H67.873L71.174 52.525C71.325 52.753 71.464 52.98 71.592 53.204H71.615C71.584 53.011 71.568 52.63 71.568 52.061V47.46H73.337V55.78H73.338Z" fill="white"/>
<path d="M81.0739 55.78H79.3389V54.927H79.3159C78.9169 55.592 78.3279 55.925 77.5469 55.925C76.9709 55.925 76.5169 55.762 76.1869 55.435C75.8559 55.108 75.6909 54.672 75.6909 54.127C75.6909 52.974 76.3739 52.309 77.7389 52.131L79.3519 51.916C79.3519 51.266 79.0009 50.941 78.2969 50.941C77.5889 50.941 76.9159 51.152 76.2779 51.573V50.192C76.5329 50.06 76.8819 49.944 77.3249 49.844C77.7669 49.743 78.1709 49.693 78.5349 49.693C80.2289 49.693 81.0759 50.538 81.0759 52.228V55.78H81.0739ZM79.3509 53.367V52.967L78.2719 53.106C77.6769 53.183 77.3789 53.452 77.3789 53.912C77.3789 54.121 77.4509 54.292 77.5969 54.425C77.7419 54.558 77.9379 54.625 78.1859 54.625C78.5299 54.625 78.8109 54.506 79.0269 54.268C79.2429 54.031 79.3509 53.731 79.3509 53.367Z" fill="white"/>
<path d="M87.1851 55.711C86.9141 55.854 86.5061 55.926 85.9611 55.926C84.6691 55.926 84.0231 55.255 84.0231 53.913V51.192H83.0601V49.84H84.0231V48.558L85.8501 48.036V49.84H87.1851V51.192H85.8501V53.594C85.8501 54.213 86.0961 54.522 86.5871 54.522C86.7801 54.522 86.9801 54.466 87.1851 54.354V55.711Z" fill="white"/>
<path d="M90.2149 48.9C89.9059 48.9 89.6529 48.808 89.4549 48.624C89.2579 48.441 89.1589 48.215 89.1589 47.948C89.1589 47.674 89.2579 47.449 89.4549 47.275C89.6519 47.101 89.9059 47.014 90.2149 47.014C90.5279 47.014 90.7829 47.101 90.9779 47.275C91.1739 47.449 91.2709 47.674 91.2709 47.948C91.2709 48.227 91.1729 48.455 90.9779 48.633C90.7819 48.811 90.5279 48.9 90.2149 48.9ZM91.1199 55.78H89.2859V49.84H91.1199V55.78Z" fill="white"/>
<path d="M96.5639 55.925C95.5739 55.925 94.7949 55.648 94.2289 55.092C93.6619 54.537 93.3789 53.784 93.3789 52.832C93.3789 51.85 93.6729 51.081 94.2609 50.526C94.8489 49.971 95.6439 49.694 96.6459 49.694C97.6319 49.694 98.4049 49.972 98.9659 50.526C99.5269 51.081 99.8069 51.815 99.8069 52.728C99.8069 53.714 99.5179 54.494 98.9399 55.066C98.3609 55.639 97.5689 55.925 96.5639 55.925ZM96.6099 51.099C96.1769 51.099 95.8399 51.248 95.6009 51.546C95.3609 51.844 95.2409 52.265 95.2409 52.811C95.2409 53.952 95.7019 54.523 96.6219 54.523C97.4999 54.523 97.9389 53.937 97.9389 52.765C97.9379 51.654 97.4949 51.099 96.6099 51.099Z" fill="white"/>
<path d="M107.803 55.78H105.975V52.479C105.975 51.559 105.646 51.098 104.989 51.098C104.672 51.098 104.411 51.22 104.205 51.463C104 51.707 103.898 52.016 103.898 52.391V55.779H102.064V49.84H103.898V50.78H103.921C104.358 50.057 104.994 49.695 105.83 49.695C107.145 49.695 107.803 50.511 107.803 52.143V55.78Z" fill="white"/>
<path d="M115.265 55.78H113.53V54.927H113.507C113.108 55.592 112.519 55.925 111.738 55.925C111.162 55.925 110.708 55.762 110.378 55.435C110.047 55.108 109.882 54.672 109.882 54.127C109.882 52.974 110.565 52.309 111.93 52.131L113.543 51.916C113.543 51.266 113.191 50.941 112.487 50.941C111.779 50.941 111.106 51.152 110.468 51.573V50.192C110.723 50.06 111.072 49.944 111.515 49.844C111.957 49.743 112.361 49.693 112.725 49.693C114.419 49.693 115.266 50.538 115.266 52.228V55.78H115.265ZM113.542 53.367V52.967L112.463 53.106C111.868 53.183 111.57 53.452 111.57 53.912C111.57 54.121 111.642 54.292 111.788 54.425C111.933 54.558 112.129 54.625 112.377 54.625C112.721 54.625 113.002 54.506 113.218 54.268C113.434 54.031 113.542 53.731 113.542 53.367Z" fill="white"/>
<path d="M119.618 55.78H117.784V46.985H119.618V55.78Z" fill="white"/>
<path d="M132.599 48.987H130.226V55.781H128.346V48.987H125.985V47.461H132.599V48.987Z" fill="white"/>
<path d="M139.552 55.78H137.817V54.927H137.794C137.395 55.592 136.806 55.925 136.025 55.925C135.449 55.925 134.995 55.762 134.665 55.435C134.334 55.108 134.169 54.672 134.169 54.127C134.169 52.974 134.852 52.309 136.217 52.131L137.83 51.916C137.83 51.266 137.479 50.941 136.775 50.941C136.067 50.941 135.394 51.152 134.756 51.573V50.192C135.011 50.06 135.36 49.944 135.803 49.844C136.246 49.743 136.649 49.693 137.013 49.693C138.707 49.693 139.554 50.538 139.554 52.228V55.78H139.552ZM137.829 53.367V52.967L136.75 53.106C136.154 53.183 135.857 53.452 135.857 53.912C135.857 54.121 135.929 54.292 136.075 54.425C136.22 54.558 136.416 54.625 136.664 54.625C137.008 54.625 137.289 54.506 137.505 54.268C137.721 54.031 137.829 53.731 137.829 53.367Z" fill="white"/>
<path d="M143 48.9C142.691 48.9 142.437 48.808 142.24 48.624C142.043 48.441 141.944 48.215 141.944 47.948C141.944 47.674 142.043 47.449 142.24 47.275C142.437 47.101 142.691 47.014 143 47.014C143.313 47.014 143.567 47.101 143.763 47.275C143.959 47.449 144.056 47.674 144.056 47.948C144.056 48.227 143.958 48.455 143.763 48.633C143.567 48.811 143.313 48.9 143 48.9ZM143.905 55.78H142.071V49.84H143.905V55.78Z" fill="white"/>
<path d="M155.121 49.84L153.41 55.781H151.484L150.608 52.3C150.55 52.068 150.517 51.815 150.509 51.54H150.474C150.447 51.842 150.408 52.087 150.358 52.277L149.418 55.781H147.515L145.838 49.84H147.706L148.524 53.716C148.563 53.898 148.591 54.118 148.611 54.377H148.646C148.666 54.106 148.7 53.878 148.751 53.692L149.772 49.84H151.518L152.435 53.716C152.458 53.812 152.485 54.037 152.516 54.389H152.557C152.576 54.165 152.607 53.941 152.65 53.716L153.421 49.84H155.121Z" fill="white"/>
<path d="M162.003 55.78H160.268V54.927H160.245C159.846 55.592 159.257 55.925 158.476 55.925C157.9 55.925 157.446 55.762 157.116 55.435C156.785 55.108 156.62 54.672 156.62 54.127C156.62 52.974 157.303 52.309 158.668 52.131L160.281 51.916C160.281 51.266 159.93 50.941 159.226 50.941C158.518 50.941 157.845 51.152 157.207 51.573V50.192C157.462 50.06 157.811 49.944 158.254 49.844C158.696 49.743 159.1 49.693 159.464 49.693C161.158 49.693 162.005 50.538 162.005 52.228V55.78H162.003ZM160.28 53.367V52.967L159.201 53.106C158.606 53.183 158.308 53.452 158.308 53.912C158.308 54.121 158.38 54.292 158.526 54.425C158.671 54.558 158.867 54.625 159.115 54.625C159.459 54.625 159.74 54.506 159.956 54.268C160.172 54.031 160.28 53.731 160.28 53.367Z" fill="white"/>
<path d="M170.26 55.78H168.433V52.479C168.433 51.559 168.104 51.098 167.447 51.098C167.13 51.098 166.869 51.22 166.663 51.463C166.459 51.707 166.356 52.016 166.356 52.391V55.779H164.522V49.84H166.356V50.78H166.379C166.816 50.057 167.452 49.695 168.288 49.695C169.603 49.695 170.261 50.511 170.261 52.143V55.78H170.26Z" fill="white"/>
<path d="M184.089 52.178C184.089 54.676 182.925 55.926 180.596 55.926C178.338 55.926 177.208 54.706 177.208 52.265V47.462H179.088V52.289C179.088 53.635 179.614 54.308 180.666 54.308C181.699 54.308 182.215 53.658 182.215 52.359V47.463H184.089V52.178Z" fill="white"/>
<path d="M192.527 55.78H190.7V52.479C190.7 51.559 190.371 51.098 189.714 51.098C189.397 51.098 189.136 51.22 188.93 51.463C188.726 51.707 188.623 52.016 188.623 52.391V55.779H186.789V49.84H188.623V50.78H188.646C189.083 50.057 189.719 49.695 190.555 49.695C191.87 49.695 192.528 50.511 192.528 52.143V55.78H192.527Z" fill="white"/>
<path d="M195.974 48.9C195.665 48.9 195.412 48.808 195.214 48.624C195.017 48.441 194.918 48.215 194.918 47.948C194.918 47.674 195.017 47.449 195.214 47.275C195.411 47.101 195.665 47.014 195.974 47.014C196.287 47.014 196.542 47.101 196.737 47.275C196.933 47.449 197.03 47.674 197.03 47.948C197.03 48.227 196.932 48.455 196.737 48.633C196.541 48.811 196.287 48.9 195.974 48.9ZM196.879 55.78H195.045V49.84H196.879V55.78Z" fill="white"/>
<path d="M205.148 49.84L202.938 55.781H200.849L198.743 49.84H200.704L201.736 53.501C201.852 53.915 201.92 54.267 201.939 54.557H201.963C201.99 54.282 202.061 53.942 202.177 53.536L203.233 49.84H205.148Z" fill="white"/>
<path d="M212.338 53.332H208.463C208.524 54.194 209.068 54.626 210.093 54.626C210.747 54.626 211.321 54.471 211.816 54.162V55.485C211.267 55.779 210.553 55.926 209.675 55.926C208.715 55.926 207.971 55.66 207.441 55.128C206.911 54.596 206.647 53.855 206.647 52.903C206.647 51.917 206.933 51.136 207.506 50.559C208.078 49.983 208.782 49.695 209.618 49.695C210.484 49.695 211.154 49.952 211.628 50.467C212.102 50.982 212.339 51.68 212.339 52.561V53.332H212.338ZM210.638 52.207C210.638 51.356 210.294 50.931 209.606 50.931C209.312 50.931 209.058 51.053 208.843 51.296C208.628 51.54 208.498 51.843 208.451 52.207H210.638Z" fill="white"/>
<path d="M218.373 51.493C218.153 51.373 217.896 51.313 217.602 51.313C217.203 51.313 216.892 51.459 216.668 51.751C216.444 52.043 216.332 52.441 216.332 52.943V55.78H214.498V49.84H216.332V50.942H216.355C216.645 50.138 217.167 49.735 217.922 49.735C218.115 49.735 218.266 49.758 218.374 49.805V51.493H218.373Z" fill="white"/>
<path d="M219.906 55.624V54.139C220.208 54.321 220.509 54.456 220.809 54.545C221.108 54.634 221.392 54.678 221.659 54.678C221.984 54.678 222.24 54.634 222.428 54.545C222.615 54.456 222.709 54.321 222.709 54.139C222.709 54.023 222.666 53.927 222.581 53.849C222.496 53.772 222.387 53.704 222.253 53.646C222.12 53.588 221.974 53.536 221.815 53.489C221.656 53.443 221.504 53.391 221.357 53.333C221.121 53.244 220.913 53.148 220.734 53.046C220.554 52.944 220.403 52.825 220.282 52.689C220.16 52.554 220.067 52.397 220.003 52.219C219.939 52.041 219.907 51.83 219.907 51.587C219.907 51.254 219.98 50.968 220.125 50.728C220.27 50.488 220.463 50.292 220.705 50.139C220.947 49.986 221.223 49.874 221.535 49.802C221.846 49.73 222.17 49.695 222.507 49.695C222.77 49.695 223.037 49.715 223.308 49.756C223.578 49.797 223.845 49.856 224.109 49.933V51.349C223.877 51.214 223.628 51.112 223.363 51.044C223.098 50.976 222.838 50.942 222.583 50.942C222.463 50.942 222.35 50.953 222.244 50.974C222.138 50.995 222.044 51.026 221.963 51.067C221.882 51.108 221.818 51.16 221.772 51.224C221.725 51.288 221.702 51.36 221.702 51.441C221.702 51.549 221.737 51.642 221.806 51.72C221.876 51.797 221.967 51.864 222.079 51.92C222.191 51.976 222.316 52.026 222.453 52.071C222.59 52.116 222.727 52.161 222.862 52.208C223.105 52.293 223.326 52.386 223.523 52.486C223.72 52.587 223.889 52.705 224.031 52.84C224.172 52.975 224.28 53.134 224.356 53.316C224.432 53.498 224.47 53.715 224.47 53.966C224.47 54.318 224.393 54.618 224.241 54.868C224.088 55.117 223.885 55.321 223.632 55.477C223.379 55.634 223.086 55.748 222.756 55.819C222.425 55.89 222.082 55.926 221.726 55.926C221.069 55.925 220.464 55.825 219.906 55.624Z" fill="white"/>
<path d="M227.52 48.9C227.211 48.9 226.957 48.808 226.76 48.624C226.563 48.441 226.464 48.215 226.464 47.948C226.464 47.674 226.563 47.449 226.76 47.275C226.957 47.101 227.211 47.014 227.52 47.014C227.833 47.014 228.087 47.101 228.283 47.275C228.479 47.449 228.576 47.674 228.576 47.948C228.576 48.227 228.478 48.455 228.283 48.633C228.088 48.811 227.833 48.9 227.52 48.9ZM228.426 55.78H226.592V49.84H228.426V55.78Z" fill="white"/>
<path d="M234.629 55.711C234.358 55.854 233.95 55.926 233.405 55.926C232.113 55.926 231.467 55.255 231.467 53.913V51.192H230.504V49.84H231.467V48.558L233.294 48.036V49.84H234.629V51.192H233.294V53.594C233.294 54.213 233.54 54.522 234.031 54.522C234.224 54.522 234.424 54.466 234.629 54.354V55.711Z" fill="white"/>
<path d="M242.387 49.84L239.974 56.256C239.394 57.799 238.52 58.571 237.351 58.571C236.906 58.571 236.541 58.521 236.255 58.42V56.958C236.498 57.101 236.763 57.173 237.049 57.173C237.521 57.173 237.85 56.95 238.035 56.506L238.348 55.769L235.935 49.84H237.965L239.073 53.454C239.143 53.679 239.196 53.943 239.235 54.249H239.258C239.293 54.025 239.357 53.764 239.45 53.466L240.57 49.84H242.387Z" fill="white"/>
<path d="M251.372 55.925C250.382 55.925 249.603 55.648 249.037 55.092C248.47 54.537 248.187 53.784 248.187 52.832C248.187 51.85 248.481 51.081 249.069 50.526C249.657 49.971 250.452 49.694 251.454 49.694C252.44 49.694 253.213 49.972 253.774 50.526C254.335 51.081 254.615 51.815 254.615 52.728C254.615 53.714 254.326 54.494 253.748 55.066C253.169 55.639 252.377 55.925 251.372 55.925ZM251.418 51.099C250.985 51.099 250.648 51.248 250.409 51.546C250.169 51.844 250.049 52.265 250.049 52.811C250.049 53.952 250.51 54.523 251.43 54.523C252.308 54.523 252.747 53.937 252.747 52.765C252.746 51.654 252.303 51.099 251.418 51.099Z" fill="white"/>
<path d="M260.748 48.389C260.512 48.296 260.286 48.25 260.069 48.25C259.481 48.25 259.187 48.569 259.187 49.207V49.839H260.545V51.191H259.187V55.78H257.359V51.191H256.361V49.84H257.359V49.103C257.359 48.426 257.579 47.881 258.02 47.467C258.461 47.053 259.061 46.846 259.818 46.846C260.189 46.846 260.499 46.885 260.746 46.962V48.389H260.748Z" fill="white"/>
<path d="M274.339 55.78H272.297L271.705 53.929H268.746L268.16 55.78H266.13L269.158 47.461H271.38L274.339 55.78ZM271.276 52.491L270.382 49.695C270.316 49.486 270.27 49.237 270.243 48.947H270.196C270.176 49.191 270.128 49.433 270.051 49.672L269.146 52.492H271.276V52.491Z" fill="white"/>
<path d="M280.142 51.493C279.922 51.373 279.664 51.313 279.371 51.313C278.972 51.313 278.661 51.459 278.437 51.751C278.213 52.043 278.101 52.441 278.101 52.943V55.78H276.267V49.84H278.101V50.942H278.124C278.414 50.138 278.936 49.735 279.691 49.735C279.884 49.735 280.035 49.758 280.143 49.805V51.493H280.142Z" fill="white"/>
<path d="M285.656 55.711C285.385 55.854 284.977 55.926 284.432 55.926C283.14 55.926 282.494 55.255 282.494 53.913V51.192H281.531V49.84H282.494V48.558L284.322 48.036V49.84H285.657V51.192H284.322V53.594C284.322 54.213 284.568 54.522 285.059 54.522C285.252 54.522 285.452 54.466 285.657 54.354V55.711H285.656Z" fill="white"/>
<path d="M287.369 55.624V54.139C287.671 54.321 287.972 54.456 288.271 54.545C288.57 54.634 288.854 54.678 289.121 54.678C289.446 54.678 289.702 54.634 289.89 54.545C290.078 54.456 290.171 54.321 290.171 54.139C290.171 54.023 290.128 53.927 290.043 53.849C289.958 53.772 289.849 53.704 289.715 53.646C289.582 53.588 289.436 53.536 289.277 53.489C289.119 53.443 288.966 53.391 288.819 53.333C288.583 53.244 288.375 53.148 288.196 53.046C288.016 52.944 287.865 52.825 287.744 52.689C287.622 52.554 287.529 52.397 287.465 52.219C287.401 52.041 287.369 51.83 287.369 51.587C287.369 51.254 287.442 50.968 287.587 50.728C287.732 50.488 287.925 50.292 288.167 50.139C288.409 49.986 288.685 49.874 288.997 49.802C289.308 49.73 289.632 49.695 289.969 49.695C290.232 49.695 290.499 49.715 290.77 49.756C291.04 49.797 291.307 49.856 291.571 49.933V51.349C291.339 51.214 291.09 51.112 290.825 51.044C290.56 50.976 290.3 50.942 290.045 50.942C289.925 50.942 289.812 50.953 289.706 50.974C289.6 50.995 289.506 51.026 289.425 51.067C289.344 51.108 289.28 51.16 289.234 51.224C289.187 51.288 289.164 51.36 289.164 51.441C289.164 51.549 289.199 51.642 289.268 51.72C289.338 51.797 289.429 51.864 289.541 51.92C289.653 51.976 289.778 52.026 289.915 52.071C290.052 52.116 290.189 52.161 290.324 52.208C290.567 52.293 290.788 52.386 290.985 52.486C291.182 52.587 291.351 52.705 291.493 52.84C291.634 52.975 291.742 53.134 291.818 53.316C291.894 53.498 291.931 53.715 291.931 53.966C291.931 54.318 291.854 54.618 291.702 54.868C291.549 55.117 291.346 55.321 291.093 55.477C290.84 55.634 290.547 55.748 290.217 55.819C289.886 55.89 289.543 55.926 289.187 55.926C288.532 55.925 287.926 55.825 287.369 55.624Z" fill="white"/>
<path d="M12.942 20.448C12.949 20.448 12.955 20.447 12.961 20.447H37.49C37.497 20.447 37.503 20.448 37.509 20.448C38.632 20.448 39.543 19.537 39.543 18.414C39.543 17.293 38.636 16.384 37.516 16.38V16.378H32.222V14.457H32.22C32.22 14.446 32.222 14.435 32.222 14.424C32.222 13.221 31.247 12.245 30.043 12.245C28.839 12.245 27.864 13.22 27.864 14.424C27.864 14.435 27.865 14.446 27.866 14.457V16.378H22.585V14.476C22.585 14.467 22.586 14.459 22.586 14.45C22.586 13.247 21.611 12.271 20.407 12.271C19.204 12.271 18.228 13.246 18.228 14.45C18.228 14.452 18.228 14.454 18.228 14.456H18.227V16.377H12.937V16.379C11.815 16.381 10.907 17.291 10.907 18.413C10.908 19.538 11.819 20.448 12.942 20.448Z" fill="white"/>
<path d="M40.7749 47.429V47.426H24.7619V45.55C24.7619 44.934 24.9179 44.803 25.4959 44.803H28.5719C29.7179 44.803 30.1849 44.14 30.1849 43.306V42.059C30.1849 41.224 29.5079 40.767 28.6739 40.767H22.3179C20.9549 40.767 20.4499 41.591 20.4499 42.5V47.426H9.89494C9.87894 47.426 9.86294 47.424 9.84694 47.424C8.66794 47.424 7.71094 48.38 7.71094 49.56C7.71094 50.739 8.66694 51.696 9.84694 51.696C9.85094 51.696 9.85394 51.696 9.85794 51.696V51.7H40.7289C40.7439 51.7 40.7579 51.702 40.7729 51.702C41.9519 51.702 42.9089 50.746 42.9089 49.566C42.9089 48.386 41.9539 47.43 40.7749 47.429Z" fill="white"/>
<path d="M33.2059 53.634V53.628H17.0799V53.633C15.8809 53.635 14.9099 54.607 14.9099 55.807C14.9099 57.008 15.8829 57.981 17.0839 57.981C17.1139 57.981 17.1439 57.978 17.1739 57.976H33.1009C33.1309 57.977 33.1609 57.981 33.1909 57.981C34.3919 57.981 35.3649 57.008 35.3649 55.807C35.3649 54.611 34.3999 53.641 33.2059 53.634Z" fill="white"/>
<path d="M46.4829 34.767C46.4669 34.767 46.4509 34.769 46.4349 34.769H44.9999V28.082C44.9999 24.672 42.9949 22.432 39.7059 22.432L26.4999 22.431V24.703C26.4999 27.291 25.0089 28.916 21.2369 28.916C19.7409 28.916 19.4349 29.464 19.4349 30L19.4129 31.173C19.4129 32.103 19.8219 32.399 21.5199 32.399C21.5199 32.399 27.2509 32.401 27.2669 32.401C29.8579 32.401 30.1929 31.988 30.1929 29.572L30.1899 26.503L33.8349 26.501V29.879C33.8349 33.359 32.8119 35.439 29.3169 35.439L18.9189 35.391C16.6319 35.391 15.9239 33.729 15.9239 32.504V29.267C15.9239 26.755 17.1939 25.884 19.2639 25.884C21.5209 25.884 22.6769 25.285 22.6769 23.693V22.433C22.6769 22.433 7.99689 22.433 7.99589 22.433C7.99489 22.433 7.99489 22.433 7.99489 22.433H7.98589C6.86689 22.438 5.96089 23.346 5.96089 24.467C5.96089 25.587 6.86689 26.495 7.98589 26.5V26.501H12.1179V28.494H4.85789C4.85589 28.494 4.85289 28.494 4.85089 28.494C3.72789 28.494 2.81689 29.405 2.81689 30.528C2.81689 31.649 3.72389 32.558 4.84489 32.562V32.564H12.1169V34.771H4.09689C4.08089 34.771 4.06489 34.769 4.04889 34.769C2.92589 34.769 2.01489 35.68 2.01489 36.803C2.01489 37.926 2.92589 38.837 4.04889 38.837C4.05089 38.837 4.05189 38.837 4.05389 38.837V38.841L32.2839 38.835C36.5349 38.835 38.0599 35.071 38.0599 31.147V26.504H40.7489V37.075C40.7489 37.786 41.3619 38.836 42.3319 38.836L46.5059 38.841V38.837C47.6189 38.825 48.5179 37.92 48.5179 36.804C48.5169 35.677 47.6059 34.767 46.4829 34.767Z" fill="white"/>
<path d="M16.369 42.824V42.558C16.369 41.881 16.523 40.928 16.796 40.869H5.99696V40.873C5.99296 40.873 5.98796 40.872 5.98396 40.872C4.73996 40.872 3.73096 41.881 3.73096 43.125C3.73096 44.369 4.73996 45.378 5.98396 45.378C6.00196 45.378 6.01896 45.376 6.03596 45.375H16.943C16.281 45.232 16.369 43.53 16.369 42.824Z" fill="white"/>
<path d="M44.4369 40.872C44.4329 40.872 44.4279 40.873 44.4239 40.873V40.869H33.6499C33.9999 41.006 34.0529 41.882 34.0529 42.558V42.824C34.0529 43.53 34.1339 45.231 33.4709 45.376H44.3849C44.4029 45.376 44.4199 45.379 44.4369 45.379C45.6809 45.379 46.6899 44.37 46.6899 43.126C46.6899 41.881 45.6809 40.872 44.4369 40.872Z" fill="white"/>
</svg>
